<svg aria-hidden="true" style="position: absolute; width: 0; height: 0; overflow: hidden;" version="1.1" xmlns="http://www.w3.org/2000/svg" xmlns:xlink="http://www.w3.org/1999/xlink">
<defs>
<symbol id="tg" viewBox="0 0 32 32">
<path fill="#f7f7f7" style="fill: var(--color1, #f7f7f7)" d="M0 16c0-8.837 7.163-16 16-16s16 7.163 16 16-7.163 16-16 16-16-7.163-16-16z"></path>
<path fill="#134731" style="fill: var(--color2, #134731)" d="M22.744 7.005l-18.074 7.344c-0.727 0.342-0.974 1.026-0.176 1.398l4.637 1.552 11.21-7.299c0.613-0.458 1.239-0.336 0.7 0.168l-9.629 9.186-0.302 3.888c0.28 0.6 0.794 0.602 1.12 0.304l2.664-2.656 4.562 3.6c1.060 0.661 1.637 0.234 1.864-0.977l2.993-14.931c0.311-1.491-0.219-2.149-1.57-1.577z"></path>
</symbol>
<symbol id="pin" viewBox="0 0 32 32">
<path fill="#f7f7f7" style="fill: var(--color1, #f7f7f7)" d="M0 16c0-8.837 7.163-16 16-16s16 7.163 16 16-7.163 16-16 16-16-7.163-16-16z"></path>
<path fill="#134731" style="fill: var(--color2, #134731)" d="M16.648 6.361c-5.64 0-8.484 4.044-8.484 7.416 0 2.044 0.775 3.859 2.431 4.535 0.273 0.112 0.516 0.005 0.595-0.295 0.054-0.209 0.184-0.737 0.242-0.956 0.081-0.295 0.049-0.4-0.169-0.66-0.479-0.563-0.784-1.296-0.784-2.329 0-3 2.244-5.685 5.845-5.685 3.189 0 4.942 1.95 4.942 4.549 0 3.424-1.516 6.312-3.766 6.312-1.242 0-2.172-1.027-1.873-2.287 0.357-1.507 1.048-3.129 1.048-4.213 0-0.972-0.523-1.781-1.6-1.781-1.269 0-2.291 1.312-2.291 3.072 0 1.12 0.381 1.878 0.381 1.878l-1.528 6.47c-0.453 1.92-0.068 4.274-0.032 4.512 0.016 0.14 0.198 0.176 0.28 0.069 0.117-0.153 1.63-2.023 2.142-3.887 0.148-0.528 0.836-3.26 0.836-3.26 0.415 0.785 1.617 1.477 2.9 1.477 3.817 0 6.405-3.477 6.405-8.136-0.004-3.52-2.986-6.8-7.52-6.8h-0.001z"></path>
</symbol>
<symbol id="insta" viewBox="0 0 32 32">
<path fill="#f7f7f7" style="fill: var(--color1, #f7f7f7)" d="M0 16c0-8.837 7.163-16 16-16s16 7.163 16 16-7.163 16-16 16-16-7.163-16-16z"></path>
<path fill="#134731" style="fill: var(--color2, #134731)" d="M16.007 6.162c3.208 0 3.588 0.014 4.85 0.070 1.173 0.051 1.806 0.248 2.228 0.412 0.558 0.216 0.962 0.478 1.378 0.896 0.422 0.422 0.68 0.82 0.901 1.378 0.164 0.422 0.362 1.059 0.413 2.226 0.056 1.266 0.070 1.646 0.070 4.848s-0.014 3.586-0.070 4.848c-0.051 1.172-0.248 1.805-0.413 2.227-0.203 0.541-0.508 1.001-0.895 1.378l-0.001 0.001c-0.378 0.388-0.838 0.695-1.353 0.891l-0.026 0.009c-0.422 0.164-1.060 0.361-2.228 0.413-1.266 0.056-1.646 0.070-4.85 0.070s-3.588-0.014-4.85-0.070c-1.172-0.052-1.806-0.248-2.227-0.413-0.541-0.202-1.002-0.508-1.378-0.895l-0.001-0.001c-0.388-0.378-0.695-0.838-0.892-1.352l-0.009-0.026c-0.164-0.422-0.361-1.060-0.413-2.227-0.056-1.266-0.070-1.646-0.070-4.848s0.014-3.586 0.070-4.848c0.052-1.172 0.249-1.805 0.413-2.227 0.203-0.54 0.508-1 0.895-1.377l0.001-0.001c0.378-0.389 0.839-0.695 1.353-0.892l0.026-0.009c0.422-0.164 1.060-0.36 2.228-0.412 1.262-0.056 1.642-0.070 4.85-0.070zM16.007 4c-3.26 0-3.668 0.014-4.949 0.070-1.275 0.056-2.152 0.262-2.912 0.558-0.793 0.31-1.464 0.718-2.13 1.388-0.596 0.584-1.069 1.293-1.374 2.084l-0.014 0.040c-0.296 0.764-0.502 1.636-0.558 2.912-0.056 1.284-0.070 1.692-0.070 4.95s0.014 3.666 0.070 4.946c0.056 1.275 0.262 2.152 0.558 2.912 0.31 0.792 0.718 1.462 1.388 2.128 0.584 0.595 1.293 1.066 2.085 1.37l0.040 0.014c0.765 0.295 1.637 0.502 2.912 0.558 1.281 0.056 1.689 0.070 4.949 0.070s3.668-0.014 4.948-0.070c1.276-0.056 2.153-0.262 2.913-0.558 0.832-0.318 1.541-0.789 2.124-1.383l0.001-0.001c0.595-0.584 1.066-1.292 1.37-2.083l0.014-0.040c0.295-0.764 0.502-1.636 0.558-2.912 0.056-1.28 0.070-1.688 0.070-4.946s-0.014-3.666-0.070-4.946c-0.056-1.275-0.262-2.152-0.558-2.912-0.306-0.837-0.775-1.55-1.372-2.132l-0.001-0.001c-0.584-0.595-1.293-1.066-2.085-1.37l-0.040-0.014c-0.765-0.295-1.637-0.502-2.913-0.558-1.286-0.060-1.694-0.074-4.953-0.074z"></path>
<path fill="#134731" style="fill: var(--color2, #134731)" d="M16.007 9.837c-3.406 0-6.167 2.76-6.168 6.165v0c0 3.407 2.761 6.168 6.168 6.168s6.168-2.761 6.168-6.168v0c-0.001-3.405-2.762-6.166-6.168-6.166v0zM16.007 20.002c-0 0-0.001 0-0.001 0-2.209 0-4-1.79-4-3.999v-0c0-2.21 1.791-4.001 4.001-4.001s4.001 1.791 4.001 4.001v0c-0 2.209-1.791 3.999-4 3.999-0 0-0.001 0-0.001 0h0zM23.858 9.594c0 0.010 0 0.022 0 0.034 0 0.795-0.645 1.44-1.44 1.44s-1.44-0.645-1.44-1.44c0-0.012 0-0.024 0-0.036l-0 0.002c0-0.795 0.645-1.44 1.44-1.44s1.44 0.645 1.44 1.44v0z"></path>
</symbol>
<symbol id="fb" viewBox="0 0 32 32">
<path fill="#f7f7f7" style="fill: var(--color1, #f7f7f7)" d="M0 16c0-8.837 7.163-16 16-16s16 7.163 16 16-7.163 16-16 16-16-7.163-16-16z"></path>
<path fill="#134731" style="fill: var(--color2, #134731)" d="M17.333 13.333h4v4h-4v9.334h-4v-9.334h-4v-4h4v-1.673c0-1.585 0.499-3.588 1.491-4.683 0.992-1.097 2.231-1.644 3.715-1.644h2.795v4h-2.8c-0.664 0-1.2 0.536-1.2 1.199v2.801h-0.002z"></path>
</symbol>
<symbol id="search" viewBox="0 0 32 32">
<path fill="#fff" style="fill: var(--color3, #fff)" d="M12.688 18.688c3.313 0 6-2.688 6-6s-2.688-6-6-6-6 2.688-6 6 2.688 6 6 6zM20.688 18.688l6.625 6.625-2 2-6.625-6.625v-1.063l-0.375-0.375c-1.5 1.313-3.5 2.063-5.625 2.063-4.813 0-8.688-3.813-8.688-8.625 0-0.005-0-0.012-0-0.018 0-4.788 3.882-8.67 8.67-8.67 0.006 0 0.013 0 0.019 0h-0.001c4.813 0 8.625 3.875 8.625 8.688 0 2.125-0.75 4.125-2.063 5.625l0.375 0.375h1.063z"></path>
</symbol>
<symbol id="arrow" viewBox="0 0 14 32">
<path fill="#666" style="fill: var(--color4, #666)" d="M12.796 9.714c0 0.143-0.081 0.304-0.204 0.411l-8.020 7.018 8.020 7.017c0.123 0.107 0.204 0.268 0.204 0.411s-0.081 0.303-0.204 0.41l-1.020 0.893c-0.126 0.107-0.29 0.174-0.469 0.178l-0.001 0c-0.163 0-0.347-0.071-0.47-0.178l-9.51-8.321c-0.123-0.107-0.204-0.268-0.204-0.411s0.082-0.304 0.204-0.41l9.51-8.322c0.126-0.107 0.29-0.174 0.469-0.178l0.001-0c0.164 0 0.347 0.071 0.47 0.178l1.020 0.893c0.123 0.107 0.204 0.25 0.204 0.411z"></path>
</symbol>
<symbol id="arrow-right" viewBox="0 0 14 32">
<path fill="#666" style="fill: var(--color1, #666)" d="M13.555 17.143c0 0.143-0.091 0.304-0.228 0.41l-10.616 8.321c-0.137 0.107-0.341 0.179-0.524 0.179s-0.387-0.071-0.524-0.178l-1.139-0.893c-0.137-0.107-0.228-0.25-0.228-0.411 0-0.143 0.091-0.304 0.228-0.41l8.953-7.018-8.953-7.017c-0.137-0.107-0.228-0.268-0.228-0.411s0.091-0.303 0.228-0.411l1.139-0.893c0.137-0.107 0.342-0.178 0.524-0.178s0.387 0.071 0.524 0.178l10.616 8.321c0.137 0.107 0.228 0.268 0.228 0.411v-0.001z"></path>
</symbol>

<symbol id="logo" viewBox="0 0 32 32">
<path fill="#fff" style="fill: var(--color3, #fff)" d="M3.381 3.404c-1.019 2.153-1.252 6.41-0.471 8.64 0.169 0.484 0.349 1.063 0.4 1.289 0.123 0.547 1.714 4.249 2.352 5.472 0.626 1.201 0.615 1.213-0.587 0.602-1.728-0.878-3.087-2.684-3.68-4.889-0.42-1.563-0.935-1.591-0.902-0.050 0.058 2.688 2.33 5.561 5.719 7.233 1.344 0.663 0.955 0.136 3.958 5.363 1.28 2.228 1.341 2.299 1.989 2.299 0.805 0 0.919-0.177 1.37-2.11 0.458-1.96 0.973-3.661 1.524-5.037l0.396-0.988-0.431-0.591c-0.236-0.325-0.482-0.591-0.546-0.592-0.212-0.002-1.176 2.176-1.78 4.025l-0.598 1.829-0.71-1.038c-0.658-0.961-2.72-4.771-3.23-5.967-1.824-4.287-1.079-9.471 1.584-11.008 0.939-0.542 0.766-1.208-0.222-0.858-2.021 0.718-3.854 3.782-4.049 6.773-0.044 0.677-0.554-0.517-1.067-2.497-0.527-2.032-0.572-5.967-0.086-7.433 0.437-1.315-0.345-1.707-0.933-0.468zM27.745 2.885c-0.054 0.133-0.014 0.705 0.091 1.272 0.554 3.009 0.402 5.73-0.457 8.151-0.598 1.686-0.831 2.045-0.835 1.283-0.012-2.453-1.714-5.431-3.654-6.391-1.44-0.714-1.575-0.219-0.254 0.931 3.674 3.199 2.896 9.657-2.018 16.741l-0.726 1.046-0.252-0.87c-0.677-2.335-0.91-2.935-1.789-4.612l-0.948-1.808 0.762-0.922c0.419-0.507 1.276-1.233 1.904-1.613s1.113-0.774 1.077-0.874c-0.227-0.638-1.932 0.056-3.526 1.434l-1.107 0.957-0.981-0.879c-1.053-0.943-2.755-1.852-3.287-1.755-0.568 0.102-0.498 0.467 0.148 0.774 2.997 1.422 5.131 5.201 6.646 11.769 0.383 1.659 0.515 1.846 1.297 1.846 0.643 0 0.715-0.078 1.722-1.846 0.621-1.090 2.236-3.811 2.826-4.76 0.225-0.362 0.808-0.765 1.764-1.221 2.802-1.337 5-4.031 5.443-6.673 0.313-1.866-0.409-2.145-0.918-0.355-0.635 2.238-2.185 4.247-3.921 5.086-0.859 0.415-0.869 0.335-0.15-1.148 3.259-6.715 3.904-11.402 2.072-15.046-0.314-0.624-0.779-0.881-0.93-0.514z"></path>
</symbol>
</defs>
</svg>
